<svg width="58" height="58" viewBox="0 0 58 58" fill="none" xmlns="http://www.w3.org/2000/svg">
<path d="M29 52.7273C32.1159 52.7273 35.2013 52.1136 38.08 50.9211C40.9588 49.7287 43.5744 47.981 45.7777 45.7777C47.981 43.5744 49.7287 40.9588 50.9211 38.08C52.1136 35.2013 52.7273 32.1159 52.7273 29C52.7273 25.8841 52.1136 22.7987 50.9211 19.92C49.7287 17.0412 47.981 14.4256 45.7777 12.2223C43.5744 10.019 40.9588 8.27127 38.08 7.07886C35.2013 5.88645 32.1159 5.27273 29 5.27273C22.7071 5.27273 16.672 7.77256 12.2223 12.2223C7.77256 16.672 5.27273 22.7071 5.27273 29C5.27273 35.2929 7.77256 41.328 12.2223 45.7777C16.672 50.2274 22.7071 52.7273 29 52.7273ZM58 29C58 45.0159 45.0159 58 29 58C12.9841 58 0 45.0159 0 29C0 12.9841 12.9841 0 29 0C45.0159 0 58 12.9841 58 29ZM36.9091 40.6369L26.3636 30.0915V11.8636H31.6364V27.9085L40.6369 36.9091L36.9091 40.6369Z" fill="white"/>
</svg>
