<svg width="43" height="44" viewBox="0 0 43 44" fill="none" xmlns="http://www.w3.org/2000/svg">
<path d="M43.0034 21.7441C43.0034 9.87009 33.3775 0.244141 21.5034 0.244141C9.62937 0.244141 0.00341797 9.87009 0.00341797 21.7441C0.00341797 32.4753 7.8657 41.3701 18.144 42.9829V27.959H12.6851V21.7441H18.144V17.0074C18.144 11.619 21.3539 8.64258 26.265 8.64258C28.6172 8.64258 31.0776 9.0625 31.0776 9.0625V14.3535H28.3666C25.6957 14.3535 24.8628 16.0109 24.8628 17.7112V21.7441H30.8257L29.8725 27.959H24.8628V42.9829C35.1411 41.3701 43.0034 32.4755 43.0034 21.7441Z" fill="#1877F2"/>
<path d="M29.8681 27.959L30.8213 21.7441H24.8584V17.7112C24.8584 16.0107 25.6914 14.3535 28.3622 14.3535H31.0732V9.0625C31.0732 9.0625 28.6128 8.64258 26.2604 8.64258C21.3495 8.64258 18.1396 11.619 18.1396 17.0074V21.7441H12.6807V27.959H18.1396V42.983C19.251 43.1571 20.3741 43.2444 21.499 43.2441C22.6239 43.2444 23.7471 43.1571 24.8584 42.983V27.959H29.8681Z" fill="white"/>
</svg>
