<svg width="42" height="44" viewBox="0 0 42 44" fill="none" xmlns="http://www.w3.org/2000/svg">
<path opacity="0.987" fill-rule="evenodd" clip-rule="evenodd" d="M18.5148 0.188806C20.768 -0.0629352 22.1013 -0.0629352 24.5224 0.188806C28.808 0.823116 32.7808 2.80407 35.8663 5.84521C33.7812 7.81605 31.7236 9.81566 29.694 11.8435C25.807 8.54909 21.4683 7.78869 16.678 9.56227C13.164 11.1784 10.717 13.7973 9.33713 17.4191C7.08215 15.7403 4.85655 14.0224 2.66133 12.2662C2.50877 12.1859 2.33453 12.1565 2.16406 12.1822C5.65114 5.45879 11.1003 1.45994 18.5117 0.185698" fill="#F44336"/>
<path opacity="0.997" fill-rule="evenodd" clip-rule="evenodd" d="M2.16389 12.174C2.34001 12.147 2.5068 12.175 2.66427 12.2579C4.85948 14.0141 7.08509 15.732 9.34006 17.4108C8.98522 18.822 8.76153 20.2629 8.67186 21.7153C8.74852 23.12 8.97126 24.4989 9.34006 25.8519L2.33172 31.4306C-0.720252 25.0532 -0.776195 18.6343 2.16389 12.174Z" fill="#FFC107"/>
<path opacity="0.999" fill-rule="evenodd" clip-rule="evenodd" d="M35.5486 38.1803C33.3664 36.2558 31.0819 34.4506 28.705 32.7725C31.0877 31.0901 32.5339 28.782 33.0436 25.8481H21.3672V17.7395C28.101 17.6836 34.8317 17.7406 41.5593 17.9105C42.8356 24.8411 41.3614 31.0901 37.1367 36.6574C36.6344 37.1914 36.1023 37.6997 35.5486 38.1803Z" fill="#448AFF"/>
<path opacity="0.993" fill-rule="evenodd" clip-rule="evenodd" d="M9.33647 25.8594C11.885 32.1933 16.5572 35.15 23.3532 34.7294C25.2609 34.5085 27.0899 33.8421 28.6926 32.7838C31.0711 34.4662 33.3524 36.2688 35.5362 38.1916C32.076 41.3009 27.6642 43.1458 23.0206 43.4253C21.9656 43.5096 20.9055 43.5096 19.8505 43.4253C11.9399 42.4929 6.09906 38.4962 2.32812 31.435L9.33647 25.8594Z" fill="#43A047"/>
</svg>
