<svg width="59" height="52" viewBox="0 0 59 52" fill="none" xmlns="http://www.w3.org/2000/svg">
<path d="M29.5 8.2402L28.0181 9.68497C28.2101 9.88664 28.4403 10.0471 28.6949 10.1566C28.9495 10.2662 29.2233 10.3227 29.5 10.3227C29.7767 10.3227 30.0505 10.2662 30.3051 10.1566C30.5597 10.0471 30.7899 9.88664 30.9819 9.68497L29.5 8.2402ZM22.4365 43.8648C18.2763 40.5447 13.7292 37.3023 10.1206 33.1902C6.58605 29.156 4.11628 24.4522 4.11628 18.3452H0C0 25.7525 3.04605 31.4037 7.04433 35.9575C10.9685 40.4307 15.9739 44.0149 19.8871 47.1378L22.4365 43.8648ZM4.11628 18.3452C4.11628 12.3717 7.45047 7.35944 12.0031 5.25064C16.4267 3.20296 22.3706 3.74475 28.0181 9.68497L30.9819 6.79821C24.286 -0.250594 16.5035 -1.41474 10.2907 1.4609C4.21507 4.27542 0 10.8102 0 18.3452H4.11628ZM19.8871 47.1378C21.2949 48.2603 22.8042 49.455 24.3327 50.3607C25.8612 51.2665 27.6065 52 29.5 52V47.8324C28.6493 47.8324 27.6504 47.499 26.41 46.7627C25.1669 46.0292 23.8799 45.0179 22.4365 43.8648L19.8871 47.1378ZM39.1129 47.1378C43.0261 44.0121 48.0315 40.4335 51.9557 35.9575C55.954 31.4009 59 25.7525 59 18.3452H54.8837C54.8837 24.4522 52.414 29.156 48.8794 33.1902C45.2708 37.3023 40.7237 40.5447 36.5635 43.8648L39.1129 47.1378ZM59 18.3452C59 10.8102 54.7877 4.27542 48.7093 1.4609C42.4965 -1.41474 34.7194 -0.250594 28.0181 6.79543L30.9819 9.68497C36.6294 3.74752 42.5733 3.20296 46.9969 5.25064C51.5495 7.35944 54.8837 12.3689 54.8837 18.3452H59ZM36.5635 43.8648C35.1201 45.0179 33.8331 46.0292 32.59 46.7627C31.3468 47.4962 30.3507 47.8324 29.5 47.8324V52C31.3935 52 33.1388 51.2637 34.6673 50.3607C36.1986 49.455 37.7051 48.2603 39.1129 47.1378L36.5635 43.8648Z" fill="white"/>
</svg>
