<svg width="43" height="44" viewBox="0 0 43 44" fill="none" xmlns="http://www.w3.org/2000/svg">
<path d="M32.9253 0.244141H10.0815C4.51555 0.244141 0.00341797 4.75627 0.00341797 10.3223V33.166C0.00341797 38.732 4.51555 43.2441 10.0815 43.2441H32.9253C38.4913 43.2441 43.0034 38.732 43.0034 33.166V10.3223C43.0034 4.75627 38.4913 0.244141 32.9253 0.244141Z" fill="url(#paint0_radial_64_1475)"/>
<path d="M32.9253 0.244141H10.0815C4.51555 0.244141 0.00341797 4.75627 0.00341797 10.3223V33.166C0.00341797 38.732 4.51555 43.2441 10.0815 43.2441H32.9253C38.4913 43.2441 43.0034 38.732 43.0034 33.166V10.3223C43.0034 4.75627 38.4913 0.244141 32.9253 0.244141Z" fill="url(#paint1_radial_64_1475)"/>
<path d="M21.5049 4.94727C16.9432 4.94727 16.3706 4.96725 14.5791 5.04872C12.7909 5.13069 11.5703 5.41371 10.5023 5.8291C9.39741 6.25809 8.46031 6.83204 7.52674 7.76595C6.59233 8.69969 6.01838 9.63679 5.58804 10.7412C5.17148 11.8095 4.88812 13.0306 4.80766 14.8179C4.72754 16.6097 4.70654 17.1824 4.70654 21.7443C4.70654 26.3062 4.7267 26.8769 4.808 28.6685C4.8903 30.4567 5.17333 31.6773 5.58838 32.7453C6.01771 33.8502 6.59166 34.7873 7.52556 35.7208C8.45897 36.6552 9.39606 37.2305 10.5001 37.6595C11.5689 38.0749 12.7897 38.3579 14.5776 38.4399C16.3693 38.5214 16.9414 38.5414 21.5029 38.5414C26.0651 38.5414 26.6359 38.5214 28.4274 38.4399C30.2156 38.3579 31.4376 38.0749 32.5064 37.6595C33.6108 37.2305 34.5465 36.6552 35.4798 35.7208C36.4142 34.7873 36.988 33.8502 37.4185 32.7458C37.8313 31.6773 38.1149 30.4563 38.1988 28.6688C38.2793 26.8773 38.3003 26.3062 38.3003 21.7443C38.3003 17.1824 38.2793 16.61 38.1988 14.8183C38.1149 13.0301 37.8313 11.8096 37.4185 10.7417C36.988 9.63679 36.4142 8.69969 35.4798 7.76595C34.5455 6.83171 33.6111 6.25776 32.5054 5.82927C31.4346 5.41371 30.2133 5.13052 28.4251 5.04872C26.6334 4.96725 26.0629 4.94727 21.4997 4.94727H21.5049ZM19.9981 7.97423C20.4454 7.97356 20.9444 7.97423 21.5049 7.97423C25.9899 7.97423 26.5213 7.99036 28.2924 8.07081C29.9301 8.14573 30.819 8.41935 31.4111 8.6493C32.195 8.95366 32.7538 9.31764 33.3414 9.9057C33.9292 10.4936 34.2931 11.0534 34.5983 11.8373C34.8282 12.4286 35.1022 13.3175 35.1767 14.9552C35.2572 16.7259 35.2747 17.2577 35.2747 21.7404C35.2747 26.2232 35.2572 26.7552 35.1767 28.5257C35.1018 30.1634 34.8282 31.0523 34.5983 31.6437C34.2939 32.4276 33.9292 32.9858 33.3414 33.5733C32.7535 34.1612 32.1953 34.5251 31.4111 34.8296C30.8196 35.0605 29.9301 35.3335 28.2924 35.4084C26.5217 35.4889 25.9899 35.5063 21.5049 35.5063C17.0198 35.5063 16.4882 35.4889 14.7176 35.4084C13.08 35.3328 12.1911 35.0592 11.5985 34.8292C10.8147 34.5247 10.2547 34.1609 9.66683 33.573C9.07894 32.9851 8.71512 32.4266 8.40992 31.6424C8.17997 31.051 7.90601 30.1621 7.83143 28.5244C7.75098 26.7536 7.73485 26.2219 7.73485 21.7362C7.73485 17.2506 7.75098 16.7217 7.83143 14.951C7.90635 13.3133 8.17997 12.4244 8.40992 11.8323C8.71445 11.0484 9.07894 10.4886 9.667 9.90066C10.2551 9.31277 10.8147 8.94879 11.5986 8.64375C12.1907 8.4128 13.08 8.13985 14.7176 8.0646C16.2672 7.99455 16.8676 7.97356 19.9981 7.97003V7.97423ZM30.4711 10.7632C29.3583 10.7632 28.4555 11.6652 28.4555 12.7781C28.4555 13.8909 29.3583 14.7938 30.4711 14.7938C31.5839 14.7938 32.4867 13.8909 32.4867 12.7781C32.4867 11.6653 31.5839 10.7625 30.4711 10.7625V10.7632ZM21.5049 13.1183C16.7413 13.1183 12.8791 16.9805 12.8791 21.7443C12.8791 26.5081 16.7413 30.3685 21.5049 30.3685C26.2687 30.3685 30.1296 26.5081 30.1296 21.7443C30.1296 16.9807 26.2684 13.1183 21.5046 13.1183H21.5049ZM21.5049 16.1452C24.5971 16.1452 27.104 18.6518 27.104 21.7443C27.104 24.8364 24.5971 27.3434 21.5049 27.3434C18.4128 27.3434 15.906 24.8364 15.906 21.7443C15.906 18.6518 18.4126 16.1452 21.5049 16.1452Z" fill="white"/>
<defs>
<radialGradient id="paint0_radial_64_1475" cx="0" cy="0" r="1" gradientUnits="userSpaceOnUse" gradientTransform="translate(11.4253 46.556) rotate(-90) scale(42.6162 39.6364)">
<stop stop-color="#FFDD55"/>
<stop offset="0.1" stop-color="#FFDD55"/>
<stop offset="0.5" stop-color="#FF543E"/>
<stop offset="1" stop-color="#C837AB"/>
</radialGradient>
<radialGradient id="paint1_radial_64_1475" cx="0" cy="0" r="1" gradientUnits="userSpaceOnUse" gradientTransform="translate(-7.19925 3.34165) rotate(78.681) scale(19.0497 78.5234)">
<stop stop-color="#3771C8"/>
<stop offset="0.128" stop-color="#3771C8"/>
<stop offset="1" stop-color="#6600FF" stop-opacity="0"/>
</radialGradient>
</defs>
</svg>
