<svg width="24" height="30" viewBox="0 0 24 30" fill="none" xmlns="http://www.w3.org/2000/svg">
<path d="M9.48667 28.1052C10.2947 28.7805 11.1373 29.3977 12 30C12.8645 29.4057 13.7031 28.7735 14.5133 28.1052C15.864 26.9819 17.1351 25.7639 18.3173 24.4602C21.0427 21.4419 24 17.0663 24 12.1545C24 10.5583 23.6896 8.97782 23.0866 7.50317C22.4835 6.02852 21.5996 4.68862 20.4853 3.55997C19.371 2.43132 18.0481 1.53603 16.5922 0.925206C15.1363 0.314385 13.5759 0 12 0C10.4241 0 8.86371 0.314385 7.4078 0.925206C5.95189 1.53603 4.62902 2.43132 3.51472 3.55997C2.40042 4.68862 1.5165 6.02852 0.913445 7.50317C0.310389 8.97782 -2.34822e-08 10.5583 0 12.1545C0 17.0663 2.95733 21.4405 5.68267 24.4602C6.86483 25.7644 8.13595 26.9815 9.48667 28.1052ZM12 16.5436C10.8507 16.5436 9.74853 16.0812 8.93587 15.2581C8.12321 14.435 7.66667 13.3186 7.66667 12.1545C7.66667 10.9904 8.12321 9.87404 8.93587 9.05092C9.74853 8.2278 10.8507 7.76537 12 7.76537C13.1493 7.76537 14.2515 8.2278 15.0641 9.05092C15.8768 9.87404 16.3333 10.9904 16.3333 12.1545C16.3333 13.3186 15.8768 14.435 15.0641 15.2581C14.2515 16.0812 13.1493 16.5436 12 16.5436Z" fill="#4A4747"/>
</svg>
