<svg width="74" height="107" viewBox="0 0 74 107" fill="none" xmlns="http://www.w3.org/2000/svg">
<path d="M67.6709 7.73014C64.5347 6.55409 60.2226 12.8264 59.4385 14.0024C58.6545 15.1785 49.2461 24.9789 49.2461 24.9789H55.5184C56.3024 24.1948 61.7906 19.0986 66.1028 15.9625C70.415 12.8264 70.807 8.90619 67.6709 7.73014ZM62.9667 14.7864C62.4649 14.5434 62.2885 14.0181 62.2571 13.9201C61.7201 12.2658 64.523 9.95287 66.4948 9.29821C66.5184 9.29037 66.6673 9.30213 66.8868 9.29821C67.1456 9.29037 67.1965 9.27468 67.2789 9.29821C67.3925 9.32957 67.5376 9.41973 67.6709 9.69022C67.812 9.85879 67.9923 10.1214 68.0629 10.4743C68.4745 12.5363 64.6484 15.6058 62.9667 14.7864Z" fill="white"/>
<path d="M31.5552 13.5741C30.8614 12.4412 31.9355 10.2498 33.3703 9.14039C35.4244 7.54488 38.0823 8.27012 38.4782 8.3838C38.9526 8.60333 39.9561 9.14431 40.6814 10.289C41.9005 12.2099 41.3439 14.268 41.2459 14.6129C41.2459 14.6129 40.7284 17.2081 37.7844 17.902V19.8072C37.7844 19.8072 45.3973 19.2897 50.4151 28.114C50.4151 28.114 54.5666 35.382 50.2426 42.3011C50.2426 42.3011 47.9925 42.9949 48.6864 40.3959C48.6864 40.3959 50.0702 37.1069 49.7252 34.1667C49.3802 31.2266 46.9576 22.2298 36.2281 22.0534C36.2281 22.0534 35.1892 22.0534 35.1892 20.8421C35.1892 19.6308 35.1892 16.5181 35.1892 16.5181C35.1892 16.5181 35.5342 15.4793 36.7455 15.6518C37.9569 15.8243 39.8581 14.0955 38.8232 11.6728C38.8232 11.6728 38.1293 10.289 36.4006 10.4615C35.4911 10.5516 34.9148 10.8339 34.5502 11.2338C34.3111 11.4964 34.366 11.5944 33.9818 12.5353C33.5388 13.6133 33.3075 14.1543 32.943 14.2641C32.4882 14.4052 31.8492 14.0524 31.5552 13.5741Z" fill="white" stroke="white" stroke-width="0.392017" stroke-miterlimit="10"/>
<path d="M31.0374 21.8805C30.2573 20.9711 29.5791 21.1357 29.2851 21.2729C29.2694 21.2807 29.2538 21.2886 29.2381 21.3003C29.2538 21.2925 29.2655 21.2847 29.2851 21.2729C29.1871 21.3199 29.1322 21.3631 29.1322 21.3631C29.1322 21.3631 29.1479 21.3513 29.1793 21.3356C29.1636 21.3435 29.1479 21.3552 29.1322 21.3631C16.5015 28.8035 22.0367 41.7793 22.0367 41.7793C24.1144 43.3356 24.4594 40.9129 24.4594 40.9129C19.7865 30.011 29.4772 23.7818 29.4772 23.7818C48.3371 39.5291 48.5096 62.5405 48.5096 62.5405H24.4594C24.6319 44.5469 33.4562 34.3388 33.8011 33.9899C34.1461 33.6449 34.3186 32.7786 33.9736 32.0847C33.6287 31.3909 32.5898 31.7397 32.5898 31.7397C21.5153 44.7155 22.0367 62.5366 22.0367 63.7479C22.0367 64.9592 22.7306 64.9592 22.7306 64.9592C22.7306 64.9592 49.2035 64.9592 49.8973 64.9592C50.5912 64.9592 50.7637 64.2654 50.7637 64.2654C51.975 39.8741 32.0763 23.0919 31.0374 21.8805Z" fill="white"/>
<path d="M29.2851 21.2729C29.5791 21.1357 30.2573 20.9711 31.0374 21.8805C32.0763 23.0919 51.975 39.8741 50.7637 64.2654C50.7637 64.2654 50.5912 64.9592 49.8973 64.9592C49.2035 64.9592 22.7306 64.9592 22.7306 64.9592C22.7306 64.9592 22.0367 64.9592 22.0367 63.7479C22.0367 62.5366 21.5153 44.7155 32.5898 31.7397C32.5898 31.7397 33.6287 31.3909 33.9736 32.0847C34.3186 32.7786 34.1461 33.6449 33.8011 33.9899C33.4562 34.3388 24.6319 44.5469 24.4594 62.5405H48.5096C48.5096 62.5405 48.3371 39.5291 29.4772 23.7818C29.4772 23.7818 19.7865 30.011 24.4594 40.9129C24.4594 40.9129 24.1144 43.3356 22.0367 41.7793C22.0367 41.7793 16.5015 28.8035 29.1322 21.3631M29.2851 21.2729C29.2694 21.2807 29.2538 21.2886 29.2381 21.3003C29.2538 21.2925 29.2655 21.2847 29.2851 21.2729ZM29.2851 21.2729C29.1871 21.3199 29.1322 21.3631 29.1322 21.3631M29.1322 21.3631C29.1322 21.3631 29.1479 21.3513 29.1793 21.3356C29.1636 21.3435 29.1479 21.3552 29.1322 21.3631Z" stroke="white" stroke-width="0.392017" stroke-miterlimit="10"/>
<path d="M73.5179 23.3199C73.5179 23.3199 62.6786 -5.23065 29.9021 0.849524C18.2553 3.00954 10.4267 10.8969 6.44385 16.8203C3.11955 21.7597 1.58677 27.0637 1.48876 27.4165C0.532244 30.8074 0.285263 33.6378 0.167658 35.0804C0.0500533 36.523 -0.142035 39.0045 0.167658 42.219C0.332305 43.9086 0.755684 47.0565 2.01798 50.6788C4.05646 56.5237 7.28669 60.7575 9.68191 63.3683C10.5835 64.3954 11.8106 65.6891 13.3825 67.069C13.3825 67.069 14.1705 67.7628 14.9702 68.3901C21.952 73.9018 29.8159 75.4738 29.8159 75.4738C31.5094 75.8109 33.2303 75.9991 33.74 76.054C35.2728 76.2186 36.88 76.3911 39.0283 76.3167C39.0283 76.3167 41.2863 76.2421 44.05 75.7874C44.5204 75.709 45.0222 75.6189 45.0222 75.6189C45.0222 75.6189 46.4688 75.3523 47.684 75.0622C51.1377 74.2311 54.8853 72.3533 54.8853 72.3533C60.3305 69.6367 64.0742 66.1085 65.7246 64.4229C67.3476 62.7685 69.4213 60.3694 71.4089 57.1549C71.4245 57.0608 71.4441 56.8883 71.3775 56.6923C71.2952 56.4532 71.1305 56.3238 71.0129 56.2297C70.9541 56.1827 70.7699 56.0415 70.4837 55.9671C70.3465 55.9318 70.0054 55.8377 69.6918 55.9671C69.4684 56.0572 69.3508 56.2179 68.8999 57.0255C68.7118 57.3626 68.6216 57.5351 68.4805 57.786C68.1433 58.3936 67.8023 58.668 67.0496 59.6677C66.7321 60.0911 66.3949 60.4752 65.7285 61.2554C64.7916 62.3452 64.0938 63.1527 63.0863 64.1641C61.7182 65.5323 60.6872 66.3516 60.4441 66.5437C60.2952 66.6613 59.9032 66.967 59.3857 67.3355C58.8682 67.704 57.7275 68.4959 55.9477 69.4485C55.3715 69.7582 52.7998 71.1381 50.1341 72.0907C43.1405 74.5878 35.9392 73.9606 34.4064 73.8077C32.4463 73.6117 28.9652 73.2393 24.7589 71.5615C23.6103 71.1028 19.0707 69.2172 14.4057 64.9795C13.2375 63.9171 10.4385 61.2318 7.83943 57.0255C7.83943 57.0255 5.60885 53.4072 4.27207 49.491C2.0023 42.8345 0.351909 26.2679 11.6733 13.8057C20.4467 4.1503 32.0857 2.7116 35.2492 2.45287C42.4153 1.86093 50.4712 3.42898 58.9897 8.52128C58.9897 8.52128 68.2413 15.3933 71.1501 23.5904C71.1501 23.5904 71.6793 24.9115 72.7378 24.6488C72.8946 24.6096 73.1572 24.5234 73.3454 24.2882C73.6512 23.8844 73.5375 23.3866 73.5179 23.3199Z" fill="white"/>
<path d="M15.9265 58.6904L4.16602 73.195L21.0227 59.0824L15.9265 58.6904Z" fill="white"/>
<path d="M65.2998 14.3976L66.4327 15.7147C66.4327 15.7147 68.04 14.425 68.0517 14.2133L67.0482 12.9941C67.0482 12.9941 65.6722 14.4054 65.2998 14.3976Z" fill="white"/>
<path d="M11.9401 100.109L12.0735 100.059C12.3902 100.592 13.2238 101.043 13.9407 101.043C14.9577 101.043 15.3745 100.109 15.3745 97.6081V88.1717C15.3745 87.7049 15.2578 87.1714 14.9577 86.8713V86.8213H17.5419V86.8713C17.2418 87.1714 17.1251 87.7049 17.1251 88.1717V98.3417C17.1251 100.526 16.2748 102.009 14.7576 102.009C13.674 102.009 12.657 101.259 11.9401 100.109ZM21.1159 102.009C19.3654 102.009 18.4651 100.909 18.4651 99.7421C18.4651 97.5247 21.7161 97.1579 23.7168 97.1079C23.6667 95.0406 23.0832 93.9736 22.0829 93.9736C21.1159 93.9736 20.6158 94.9906 20.7325 96.9412H20.5991L19.1153 94.6405C19.6488 93.9236 20.5324 93.3401 21.9829 93.3401C23.7334 93.3401 25.3006 94.1737 25.3006 97.0079V100.376C25.3006 100.626 25.384 101.276 25.6841 101.509V101.559C25.4507 101.509 25.2339 101.493 25.0505 101.493C24.4503 101.493 24.0669 101.709 23.7334 102.009H23.7168V100.576C23.1666 101.426 22.383 102.009 21.1159 102.009ZM23.7168 98.1249V97.5914C22.0496 97.6081 20.0489 97.7915 20.0489 99.5587C20.0489 100.559 20.6991 101.376 21.6995 101.376C22.5664 101.376 23.3166 100.742 23.7168 98.1249ZM30.6284 100.676C31.762 100.676 32.4123 100.159 32.8791 99.2253L33.0124 99.2753C32.3122 101.226 31.1285 102.009 29.7948 102.009C27.8441 102.009 26.377 100.342 26.377 97.6748C26.377 95.0073 28.1776 93.3401 30.2282 93.3401C31.4286 93.3401 32.3122 93.9236 32.8457 94.6405L31.3619 96.9412H31.2285C31.3452 94.9906 30.545 94.0069 29.528 94.0069C28.411 94.0069 27.7774 95.224 27.7774 96.8745C27.7774 99.2253 28.7277 100.676 30.6284 100.676ZM37.8347 102.009C35.6507 102.009 33.8501 100.342 33.8501 97.6748C33.8501 95.0073 35.6507 93.3401 37.8347 93.3401C40.0187 93.3401 41.8193 95.0073 41.8193 97.6748C41.8193 100.342 40.0187 102.009 37.8347 102.009ZM37.1678 94.0069C35.8841 94.0069 35.2505 95.224 35.2505 96.6244C35.2505 98.5584 36.4676 101.343 38.5016 101.343C39.7853 101.343 40.4189 100.126 40.4189 98.7251C40.4189 96.7912 39.2018 94.0069 37.1678 94.0069ZM46.6262 94.107C45.6425 94.107 44.8256 95.0406 44.4922 96.341V98.1916C44.8089 99.9755 46.0593 101.343 47.3264 101.343C48.3267 101.343 49.0103 100.509 49.0103 98.5417C49.0103 96.3577 48.1767 94.107 46.6262 94.107ZM42.5249 87.1714V87.1214C42.7583 87.1714 42.975 87.1881 43.1584 87.1881C43.7586 87.1881 44.1421 86.9713 44.4755 86.6712H44.4922V94.7072C45.109 93.9402 45.9593 93.3401 47.0263 93.3401C48.8102 93.3401 50.4774 95.0073 50.4774 97.5247C50.4774 99.9755 48.8269 102.009 46.9596 102.009C46.0427 102.009 45.3424 101.526 44.8256 100.959C43.8753 100.809 43.3585 101.609 42.925 102.009H42.9083V88.3051C42.9083 88.055 42.825 87.4048 42.5249 87.1714ZM53.6043 90.1224C53.5043 90.5114 53.3765 90.9337 53.2209 91.3894C53.0653 91.8451 52.893 92.3008 52.704 92.7565C52.5262 93.2011 52.3484 93.6235 52.1705 94.0236H51.0869C51.1647 93.7124 51.2425 93.379 51.3203 93.0233C51.4092 92.6676 51.487 92.3119 51.5537 91.9563C51.6315 91.5895 51.6982 91.2338 51.7537 90.8893C51.8204 90.5447 51.876 90.2279 51.9205 89.939H53.4876L53.6043 90.1224ZM60.9534 99.4253C60.9534 100.909 59.7697 102.009 57.6357 102.009C55.8184 102.009 54.7514 101.209 54.2179 100.492L55.5517 98.4083C55.6017 98.4083 55.6351 98.4083 55.6851 98.4083C55.5684 100.359 56.3686 101.409 57.7024 101.409C58.7694 101.409 59.5196 100.726 59.5196 99.9588C59.5196 98.0249 54.9015 98.7084 54.9015 95.9242C54.9015 94.3404 56.402 93.3401 58.1192 93.3401C59.4363 93.3401 60.3199 93.9236 60.8534 94.6405L59.5696 96.441C59.5196 96.441 59.4863 96.441 59.4363 96.441C59.5363 94.8405 58.8528 93.9569 57.6857 93.9569C56.652 93.9569 56.1019 94.6571 56.1019 95.374C56.1019 97.358 60.9534 96.3577 60.9534 99.4253Z" fill="white"/>
</svg>
