<svg width="74" height="107" viewBox="0 0 74 107" fill="none" xmlns="http://www.w3.org/2000/svg">
<path d="M67.6381 7.66545C64.5279 6.49913 60.2514 12.7195 59.4738 13.8858C58.6963 15.0522 49.3657 24.7715 49.3657 24.7715H55.5861C56.3637 23.994 61.8065 18.9399 66.083 15.8297C70.3595 12.7195 70.7483 8.83178 67.6381 7.66545ZM62.9728 14.6634C62.4752 14.4223 62.3002 13.9014 62.2691 13.8042C61.7365 12.1636 64.5162 9.8698 66.4718 9.22055C66.4951 9.21277 66.6428 9.22444 66.8606 9.22055C67.1171 9.21277 67.1677 9.19722 67.2493 9.22055C67.3621 9.25165 67.5059 9.34107 67.6381 9.60932C67.7781 9.7765 67.9569 10.037 68.0269 10.3869C68.4351 12.4318 64.6407 15.4759 62.9728 14.6634Z" fill="black"/>
<path d="M31.821 13.4626C31.1329 12.339 32.1981 10.1658 33.621 9.06555C35.6582 7.48324 38.2941 8.20248 38.6868 8.31522C39.1572 8.53293 40.1524 9.06944 40.8717 10.2047C42.0808 12.1096 41.5287 14.1507 41.4315 14.4928C41.4315 14.4928 40.9183 17.0665 37.9986 17.7547V19.6441C37.9986 19.6441 45.5486 19.1309 50.5249 27.8822C50.5249 27.8822 54.642 35.0901 50.3539 41.9519C50.3539 41.9519 48.1223 42.6401 48.8104 40.0625C48.8104 40.0625 50.1828 36.8007 49.8407 33.8849C49.4986 30.9691 47.0959 22.0467 36.4552 21.8718C36.4552 21.8718 35.425 21.8718 35.425 20.6705C35.425 19.4691 35.425 16.3823 35.425 16.3823C35.425 16.3823 35.7671 15.352 36.9684 15.5231C38.1697 15.6941 40.0552 13.9797 39.0289 11.577C39.0289 11.577 38.3408 10.2047 36.6263 10.3757C35.7243 10.4651 35.1528 10.7451 34.7913 11.1416C34.5541 11.4021 34.6085 11.4993 34.2275 12.4323C33.7882 13.5015 33.5588 14.038 33.1973 14.1468C32.7463 14.2868 32.1126 13.9369 31.821 13.4626Z" fill="black" stroke="black" stroke-width="0.388774" stroke-miterlimit="10"/>
<path d="M31.308 21.6998C30.5343 20.7978 29.8617 20.9611 29.5701 21.0972C29.5546 21.105 29.539 21.1128 29.5235 21.1244C29.539 21.1166 29.5507 21.1089 29.5701 21.0972C29.473 21.1439 29.4185 21.1866 29.4185 21.1866C29.4185 21.1866 29.4341 21.175 29.4652 21.1594C29.4496 21.1672 29.4341 21.1788 29.4185 21.1866C16.8922 28.5656 22.3817 41.434 22.3817 41.434C24.4422 42.9774 24.7843 40.5748 24.7843 40.5748C20.1502 29.763 29.7607 23.5854 29.7607 23.5854C48.4646 39.2024 48.6356 62.0235 48.6356 62.0235H24.7843C24.9554 44.1787 33.7067 34.055 34.0488 33.709C34.391 33.3669 34.562 32.5077 34.2199 31.8196C33.8778 31.1315 32.8475 31.4775 32.8475 31.4775C21.8647 44.3459 22.3817 62.0196 22.3817 63.2209C22.3817 64.4222 23.0698 64.4222 23.0698 64.4222C23.0698 64.4222 49.3237 64.4222 50.0119 64.4222C50.7 64.4222 50.8711 63.734 50.8711 63.734C52.0724 39.5445 32.3382 22.9011 31.308 21.6998Z" fill="black"/>
<path d="M29.5701 21.0972C29.8617 20.9611 30.5343 20.7978 31.308 21.6998C32.3382 22.9011 52.0724 39.5445 50.8711 63.734C50.8711 63.734 50.7 64.4222 50.0119 64.4222C49.3237 64.4222 23.0698 64.4222 23.0698 64.4222C23.0698 64.4222 22.3817 64.4222 22.3817 63.2209C22.3817 62.0196 21.8647 44.3459 32.8475 31.4775C32.8475 31.4775 33.8778 31.1315 34.2199 31.8196C34.562 32.5077 34.391 33.3669 34.0488 33.709C33.7067 34.055 24.9554 44.1787 24.7843 62.0235H48.6356C48.6356 62.0235 48.4646 39.2024 29.7607 23.5854C29.7607 23.5854 20.1502 29.763 24.7843 40.5748C24.7843 40.5748 24.4422 42.9774 22.3817 41.434C22.3817 41.434 16.8922 28.5656 29.4185 21.1866M29.5701 21.0972C29.5546 21.105 29.539 21.1128 29.5235 21.1244C29.539 21.1166 29.5507 21.1089 29.5701 21.0972ZM29.5701 21.0972C29.473 21.1439 29.4185 21.1866 29.4185 21.1866M29.4185 21.1866C29.4185 21.1866 29.4341 21.175 29.4652 21.1594C29.4496 21.1672 29.4341 21.1788 29.4185 21.1866Z" stroke="black" stroke-width="0.388774" stroke-miterlimit="10"/>
<path d="M73.4366 23.127C73.4366 23.127 62.687 -5.18739 30.1816 0.842497C18.6312 2.98464 10.8673 10.8068 6.9174 16.6811C3.6206 21.5797 2.1005 26.8398 2.00331 27.1897C1.0547 30.5526 0.809759 33.3596 0.693127 34.7902C0.576495 36.2209 0.385995 38.6819 0.693127 41.8698C0.856412 43.5454 1.27629 46.6673 2.52814 50.2596C4.54977 56.0562 7.75327 60.2549 10.1287 62.8442C11.0229 63.8628 12.2397 65.1457 13.7987 66.5142C13.7987 66.5142 14.5801 67.2023 15.3732 67.8244C22.2973 73.2905 30.0961 74.8495 30.0961 74.8495C31.7756 75.1839 33.4823 75.3705 33.9877 75.4249C35.5078 75.5882 37.1018 75.7592 39.2323 75.6854C39.2323 75.6854 41.4716 75.6115 44.2125 75.1605C44.679 75.0828 45.1766 74.9934 45.1766 74.9934C45.1766 74.9934 46.6112 74.729 47.8164 74.4413C51.2415 73.6171 54.9582 71.7549 54.9582 71.7549C60.3583 69.0607 64.0711 65.5617 65.7078 63.89C67.3174 62.2493 69.374 59.8701 71.3451 56.6821C71.3606 56.5888 71.38 56.4177 71.3139 56.2234C71.2323 55.9862 71.069 55.8579 70.9524 55.7646C70.8941 55.7179 70.7113 55.578 70.4275 55.5041C70.2915 55.4691 69.9532 55.3758 69.6422 55.5041C69.4206 55.5935 69.304 55.7529 68.8569 56.5538C68.6703 56.8881 68.5809 57.0592 68.4409 57.308C68.1066 57.9106 67.7683 58.1828 67.0219 59.1741C66.707 59.594 66.3726 59.975 65.7117 60.7487C64.7825 61.8295 64.0905 62.6304 63.0914 63.6334C61.7345 64.9902 60.7121 65.8027 60.471 65.9932C60.3233 66.1099 59.9345 66.4131 59.4213 66.7786C58.9082 67.144 57.7768 67.9293 56.0118 68.8741C55.4403 69.1812 52.8899 70.5497 50.2463 71.4944C43.3105 73.9709 36.1688 73.3488 34.6487 73.1972C32.7048 73.0028 29.2525 72.6335 25.0809 70.9696C23.9418 70.5147 19.4398 68.6447 14.8134 64.442C13.6549 63.3884 10.879 60.7253 8.30144 56.5538C8.30144 56.5538 6.08931 52.9654 4.76359 49.0816C2.51259 42.4802 0.875853 26.0506 12.1036 13.6915C20.8044 4.11597 32.3471 2.68917 35.4845 2.43258C42.5913 1.84553 50.5806 3.40062 59.0287 8.4508C59.0287 8.4508 68.2037 15.266 71.0884 23.3953C71.0884 23.3953 71.6133 24.7054 72.663 24.445C72.8185 24.4061 73.079 24.3206 73.2656 24.0873C73.5688 23.6868 73.4561 23.1931 73.4366 23.127Z" fill="black"/>
<path d="M16.3209 58.2061L4.65771 72.5907L21.375 58.5948L16.3209 58.2061Z" fill="black"/>
<path d="M65.2866 14.2776L66.4102 15.5838C66.4102 15.5838 68.0041 14.3048 68.0158 14.0948L67.0205 12.8857C67.0205 12.8857 65.656 14.2853 65.2866 14.2776Z" fill="black"/>
<path d="M12.368 99.4465L12.5003 99.3969C12.8144 99.926 13.6411 100.372 14.3521 100.372C15.3607 100.372 15.774 99.4465 15.774 96.9664V87.6081C15.774 87.1451 15.6583 86.616 15.3607 86.3184V86.2688H17.9235V86.3184C17.6259 86.616 17.5101 87.1451 17.5101 87.6081V97.6939C17.5101 99.8598 16.6669 101.331 15.1623 101.331C14.0876 101.331 13.079 100.587 12.368 99.4465ZM21.468 101.331C19.7319 101.331 18.839 100.24 18.839 99.0827C18.839 96.8837 22.0632 96.5199 24.0473 96.4703C23.9977 94.4201 23.419 93.3619 22.4269 93.3619C21.468 93.3619 20.9719 94.3705 21.0877 96.305H20.9554L19.4839 94.0233C20.013 93.3123 20.8893 92.7336 22.3277 92.7336C24.0638 92.7336 25.618 93.5603 25.618 96.3711V99.711C25.618 99.959 25.7007 100.604 25.9983 100.835V100.885C25.7668 100.835 25.5519 100.819 25.37 100.819C24.7748 100.819 24.3945 101.034 24.0638 101.331H24.0473V99.9094C23.5017 100.753 22.7246 101.331 21.468 101.331ZM24.0473 97.4789V96.9498C22.3939 96.9664 20.4098 97.1482 20.4098 98.9008C20.4098 99.8929 21.0546 100.703 22.0467 100.703C22.9064 100.703 23.6505 100.075 24.0473 97.4789ZM30.9017 100.009C32.026 100.009 32.6709 99.4961 33.1338 98.5702L33.2661 98.6198C32.5717 100.554 31.3977 101.331 30.075 101.331C28.1405 101.331 26.6855 99.6779 26.6855 97.0325C26.6855 94.387 28.4712 92.7336 30.5049 92.7336C31.6953 92.7336 32.5717 93.3123 33.1007 94.0233L31.6292 96.305H31.4969C31.6127 94.3705 30.819 93.395 29.8105 93.395C28.7027 93.395 28.0744 94.602 28.0744 96.2389C28.0744 98.5702 29.0168 100.009 30.9017 100.009ZM38.0484 101.331C35.8825 101.331 34.0968 99.6779 34.0968 97.0325C34.0968 94.387 35.8825 92.7336 38.0484 92.7336C40.2144 92.7336 42.0001 94.387 42.0001 97.0325C42.0001 99.6779 40.2144 101.331 38.0484 101.331ZM37.3871 93.395C36.114 93.395 35.4857 94.602 35.4857 95.9908C35.4857 97.9088 36.6926 100.67 38.7098 100.67C39.9829 100.67 40.6112 99.463 40.6112 98.0741C40.6112 96.1562 39.4042 93.395 37.3871 93.395ZM46.7672 93.4942C45.7917 93.4942 44.9815 94.4201 44.6508 95.7098V97.545C44.965 99.3142 46.2051 100.67 47.4616 100.67C48.4537 100.67 49.1316 99.8433 49.1316 97.8923C49.1316 95.7263 48.3049 93.4942 46.7672 93.4942ZM42.6998 86.616V86.5664C42.9313 86.616 43.1462 86.6325 43.3281 86.6325C43.9233 86.6325 44.3036 86.4176 44.6343 86.12H44.6508V94.0894C45.2626 93.3289 46.1058 92.7336 47.164 92.7336C48.9332 92.7336 50.5866 94.387 50.5866 96.8837C50.5866 99.3142 48.9497 101.331 47.0979 101.331C46.1885 101.331 45.4941 100.852 44.9815 100.29C44.0391 100.141 43.5265 100.935 43.0966 101.331H43.0801V87.7403C43.0801 87.4923 42.9974 86.8475 42.6998 86.616ZM53.6876 89.5425C53.5884 89.9283 53.4617 90.3472 53.3074 90.7991C53.153 91.2511 52.9822 91.703 52.7948 92.1549C52.6184 92.5958 52.4421 93.0147 52.2657 93.4115H51.191C51.2681 93.1029 51.3453 92.7722 51.4225 92.4195C51.5106 92.0667 51.5878 91.714 51.6539 91.3613C51.7311 90.9975 51.7972 90.6448 51.8523 90.3031C51.9185 89.9614 51.9736 89.6473 52.0177 89.3607H53.5719L53.6876 89.5425ZM60.9759 98.7686C60.9759 100.24 59.802 101.331 57.6857 101.331C55.8834 101.331 54.8253 100.538 54.2962 99.8268L55.6189 97.76C55.6685 97.76 55.7016 97.76 55.7512 97.76C55.6354 99.6945 56.4291 100.736 57.7518 100.736C58.81 100.736 59.554 100.058 59.554 99.2977C59.554 97.3797 54.9741 98.0576 54.9741 95.2964C54.9741 93.7257 56.4621 92.7336 58.1651 92.7336C59.4713 92.7336 60.3477 93.3123 60.8767 94.0233L59.6036 95.809C59.554 95.809 59.5209 95.809 59.4713 95.809C59.5705 94.2217 58.8926 93.3454 57.7353 93.3454C56.7101 93.3454 56.1645 94.0398 56.1645 94.7508C56.1645 96.7183 60.9759 95.7263 60.9759 98.7686Z" fill="black"/>
</svg>
