<svg width="48" height="50" viewBox="0 0 48 50" fill="none" xmlns="http://www.w3.org/2000/svg">
<path d="M40.8 2.5L26.4 17.5L31.2 22.5L48 5V2.5M24 26.25C23.6817 26.25 23.3765 26.1183 23.1515 25.8839C22.9264 25.6495 22.8 25.3315 22.8 25C22.8 24.6685 22.9264 24.3505 23.1515 24.1161C23.3765 23.8817 23.6817 23.75 24 23.75C24.3183 23.75 24.6235 23.8817 24.8485 24.1161C25.0736 24.3505 25.2 24.6685 25.2 25C25.2 25.3315 25.0736 25.6495 24.8485 25.8839C24.6235 26.1183 24.3183 26.25 24 26.25ZM9.6 45C8.32696 45 7.10606 44.4732 6.20589 43.5355C5.30571 42.5979 4.8 41.3261 4.8 40C4.8 38.6739 5.30571 37.4021 6.20589 36.4645C7.10606 35.5268 8.32696 35 9.6 35C10.873 35 12.0939 35.5268 12.9941 36.4645C13.8943 37.4021 14.4 38.6739 14.4 40C14.4 41.3261 13.8943 42.5979 12.9941 43.5355C12.0939 44.4732 10.873 45 9.6 45ZM9.6 15C8.32696 15 7.10606 14.4732 6.20589 13.5355C5.30571 12.5979 4.8 11.3261 4.8 10C4.8 8.67392 5.30571 7.40215 6.20589 6.46447C7.10606 5.52678 8.32696 5 9.6 5C10.873 5 12.0939 5.52678 12.9941 6.46447C13.8943 7.40215 14.4 8.67392 14.4 10C14.4 11.3261 13.8943 12.5979 12.9941 13.5355C12.0939 14.4732 10.873 15 9.6 15ZM18.336 14.1C18.888 12.85 19.2 11.475 19.2 10C19.2 7.34784 18.1886 4.8043 16.3882 2.92893C14.5879 1.05357 12.1461 0 9.6 0C7.05392 0 4.61212 1.05357 2.81178 2.92893C1.01143 4.8043 0 7.34784 0 10C0 12.6522 1.01143 15.1957 2.81178 17.0711C4.61212 18.9464 7.05392 20 9.6 20C11.016 20 12.336 19.675 13.536 19.1L19.2 25L13.536 30.9C12.336 30.325 11.016 30 9.6 30C7.05392 30 4.61212 31.0536 2.81178 32.9289C1.01143 34.8043 0 37.3478 0 40C0 42.6522 1.01143 45.1957 2.81178 47.0711C4.61212 48.9464 7.05392 50 9.6 50C12.1461 50 14.5879 48.9464 16.3882 47.0711C18.1886 45.1957 19.2 42.6522 19.2 40C19.2 38.525 18.888 37.15 18.336 35.9L24 30L40.8 47.5H48V45L18.336 14.1Z" fill="white"/>
</svg>
